Coraline ist ein Animationsfilm des US-amerikanischen Regisseurs Henry Selick aus dem Jahr 2009. Die im Stop-Motion-Verfahren hergestellte 3D-Produktion basiert auf dem gleichnamigen Roman von Neil Gaiman, der von Selick selbst für die Kinoleinwand adaptiert wurde, wobei die Handlung deutlich erweitert und verändert wurde.

3D Anaglyph

Input #0, matroska, from 'Coraline (2009).mkv':
  Duration: 01:40:29.24, start: 0.000000, bitrate: N/A
    Stream #0.0(ger): Video: h264, yuv420p, 1280x688, PAR 1:1 DAR 80:43, 24 tbr, 1k tbn, 47.95 tbc
    Stream #0.1(ger): Audio: ac3, 48000 Hz, 5.1, s16
